# xmcd
#
# Track frame offsets:
#	150
#	15345
#	32790
#	47932
#	64852
#	80325
#	98080
#	121152
#	143862
#	174752
#	185717
#	208797
#	229285
#	248170
#	282630
#
# Disc length: 4037 seconds
#
# Revision: 1
# Processed by: cddbd v1.4PL0 Copyright (c) Steve Scherf et al.
# Submitted via: audiograbber 1.81.03
#
DISCID=d20fc30f
DTITLE=Various Artist - Texas Blues (JSP) - CD 1
DYEAR=1997
DGENRE=Blues
TTITLE0=Tutu Jones - Stubborn Woman
TTITLE1=Phillip Walker - Young Devil
TTITLE2=Andrew Jr Boy Jones - You're A Dog
TTITLE3=Lowell Fulson - Meet Me In The Bottom
TTITLE4=Lowell Fulson - Come Back Baby
TTITLE5=Bob Kirkpatrick - Going Back To Texas
TTITLE6=Bob Kirkpatrick - Old Friend Of Mine
TTITLE7=Joe Coronado and The Texas Beat - What The Woman's Done To Me
TTITLE8=Joe Coronado and The Texas Beat - Sunrise Sorrow
TTITLE9=Floyd Dixon - Don't Leave Me Baby
TTITLE10=Tutu Jones - Heroes Of The Blues
TTITLE11=Alanda Williams - Jacksboro Highway
TTITLE12=Joe Houston and Otis Grand - Camila's Hop
TTITLE13=Joe Houston and Otis Grand - Blues For T Bone
TTITLE14=Little Nikki With Andrew Jr Boy Jones - Blame It On Me
EXTD=
EXTT0=
EXTT1=
EXTT2=
EXTT3=
EXTT4=
EXTT5=
EXTT6=
EXTT7=
EXTT8=
EXTT9=
EXTT10=
EXTT11=
EXTT12=
EXTT13=
EXTT14=
PLAYORDER=
